<mxfile host="app.diagrams.net" modified="2023-12-27T05:52:51.096Z" agent="Mozilla/5.0 (Macintosh; Intel Mac OS X 10_15_7) AppleWebKit/537.36 (KHTML, like Gecko) Chrome/120.0.0.0 Safari/537.36" version="22.1.12" etag="A8-QbJ-IHvMFrXcZvQqv" type="github">
  <diagram id="uRI4BPjh-oSYJNO2jy94" name="Page-1">
    <mxGraphModel dx="1450" dy="787" grid="1" gridSize="10" guides="1" tooltips="1" connect="1" arrows="1" fold="1" page="1" pageScale="1" pageWidth="850" pageHeight="1100" math="0" shadow="0">
      <root>
        <mxCell id="0" />
        <mxCell id="1" parent="0" />
      </root>
    </mxGraphModel>
  </diagram>
</mxfile>
